<svg xmlns="http://www.w3.org/2000/svg" viewBox="0 0 855.9 308.11"><defs><style>.cls-1,.cls-2{fill:#fff;}.cls-1{stroke:#fff;stroke-miterlimit:10;}.cls-3{fill:#f5a51f;}</style></defs><g id="Layer_2" data-name="Layer 2"><g id="Layer_1-2" data-name="Layer 1"><path class="cls-1" d="M93.29,303.16H88.88L97.59,264H102l-1,4.05a12,12,0,0,1,9.41-4.76c6.47,0,11,4.29,11,11.7,0,9.23-5.77,18.11-14.88,18.11a11.19,11.19,0,0,1-9.88-5.18Zm15.58-36a11.14,11.14,0,0,0-8.7,4.88l-2.76,12.46a9.48,9.48,0,0,0,8.58,4.59c6.47,0,10.82-6.53,10.82-13.35C116.81,270.47,113.58,267.18,108.87,267.18Z"/><path class="cls-1" d="M141.86,263.24c8.06,0,13,5.11,13,12.64,0,8.94-6.7,17.17-15.81,17.17-8.12,0-13-5.06-13-12.58C126,271.53,132.69,263.24,141.86,263.24Zm-.12,3.94c-6.46,0-11.05,6.41-11.05,13.11,0,5.35,3.12,8.82,8.47,8.82,6.46,0,11.05-6.41,11.05-13.11C150.21,270.65,147.09,267.18,141.74,267.18Z"/><path class="cls-1" d="M180.78,269.53l-12.46,22.81h-4.41L161.15,264h4.41l1.88,22.63L179.9,264h3.88l2.41,22.63L198.07,264h4.82l-15.35,28.39h-4.4Z"/><path class="cls-1" d="M218.83,263.24c7.46,0,12.23,5.17,12.23,12.4a22.38,22.38,0,0,1-.47,3.94H207.42c0,.24-.06.94-.06,1.36,0,4.41,3.24,8.46,9.64,8.46a13.6,13.6,0,0,0,8.18-2.76l1.47,3.06a16.69,16.69,0,0,1-9.94,3.35c-8.64,0-13.87-5-13.87-12.58C202.84,271.06,209.83,263.24,218.83,263.24Zm8.23,12c0-4.7-3-8.35-8.64-8.35-5.24,0-9.65,4.41-10.53,9.47h19.05A6.3,6.3,0,0,0,227.06,275.23Z"/><path class="cls-1" d="M241.11,264h4.41l-1,4.35c2.83-3.24,5.71-4.94,10.59-4.94l-1,4.52a9.29,9.29,0,0,0-2.24-.23c-3.29,0-6.41,2.23-8.23,4.64l-4.41,20h-4.41Z"/><path class="cls-1" d="M271.33,263.24c7.47,0,12.23,5.17,12.23,12.4a21.47,21.47,0,0,1-.47,3.94H259.93c0,.24-.06.94-.06,1.36,0,4.41,3.23,8.46,9.64,8.46a13.57,13.57,0,0,0,8.17-2.76l1.47,3.06a16.66,16.66,0,0,1-9.93,3.35c-8.65,0-13.88-5-13.88-12.58C255.34,271.06,262.34,263.24,271.33,263.24Zm8.23,12c0-4.7-3-8.35-8.64-8.35-5.23,0-9.64,4.41-10.52,9.47h19.05A6.34,6.34,0,0,0,279.56,275.23Z"/><path class="cls-1" d="M316.61,253.13H321l-8.7,39.21h-4.41l.88-4.06a11.79,11.79,0,0,1-9.35,4.77c-6.53,0-11-4.29-11-11.7,0-9.23,5.7-18.11,14.87-18.11a11.26,11.26,0,0,1,9.88,5.17Zm-15.58,36a11,11,0,0,0,8.64-4.82l2.82-12.53a9.61,9.61,0,0,0-8.58-4.58c-6.47,0-10.82,6.52-10.82,13.34C293.09,285.82,296.26,289.11,301,289.11Z"/><path class="cls-1" d="M340.72,292.34h-4.41L345,253.13h4.41L346.07,268a12,12,0,0,1,9.4-4.76c6.47,0,11,4.29,11,11.7,0,9.23-5.76,18.11-14.88,18.11a11.17,11.17,0,0,1-9.87-5.18Zm13.17-25.16a11.13,11.13,0,0,0-8.7,4.88l-2.77,12.46c1.41,2.59,4.47,4.59,8.59,4.59,6.46,0,10.81-6.53,10.81-13.35C361.82,270.47,358.59,267.18,353.89,267.18Z"/><path class="cls-1" d="M370.47,299.75c1.59,0,2.76-.65,4.23-2.82l2.88-4.41L372.17,264h4.65l4.23,23.28L395.69,264h4.94L378.76,298.1c-2.53,3.94-5.17,5.77-8.88,5.77a10.43,10.43,0,0,1-3.7-.65l1.53-3.94A7.33,7.33,0,0,0,370.47,299.75Z"/><path class="cls-2" d="M488.52,306.25l-5.39-13.62H456.28l-5.1,13.62H433l29.1-69.38h16.27l28.81,69.38ZM469.9,255.39l-8.82,23.81h17.45Z"/><path class="cls-2" d="M567.85,291.5a24.78,24.78,0,0,1-6,8.82,27.85,27.85,0,0,1-9.46,5.73,37.9,37.9,0,0,1-24.65,0,26.79,26.79,0,0,1-9.31-5.73,24.84,24.84,0,0,1-5.88-8.82,30.51,30.51,0,0,1-2.06-11.42V236.87h16.66v41.84a19.28,19.28,0,0,0,.74,5.39,13.89,13.89,0,0,0,2.25,4.56,10.47,10.47,0,0,0,4,3.18,16,16,0,0,0,12.05,0,10.88,10.88,0,0,0,4.07-3.18,12.67,12.67,0,0,0,2.26-4.56,20.89,20.89,0,0,0,.68-5.39V236.87H570v43.21A29.74,29.74,0,0,1,567.85,291.5Z"/><path class="cls-2" d="M620.62,306.25l-15-27.54H600v27.54H583.48V236.87h26.46a45.71,45.71,0,0,1,9.75,1,25.14,25.14,0,0,1,8.53,3.48,18.25,18.25,0,0,1,6,6.46,20.26,20.26,0,0,1,2.25,10,18.44,18.44,0,0,1-3.82,11.86,20.86,20.86,0,0,1-10.59,6.86l18.13,29.69Zm-.68-48.12a7,7,0,0,0-1-4,7.13,7.13,0,0,0-2.65-2.35,11.53,11.53,0,0,0-3.62-1.12,26.23,26.23,0,0,0-3.87-.3h-8.92v16.17h7.94a26.63,26.63,0,0,0,4.21-.34,13.42,13.42,0,0,0,3.92-1.23,7.36,7.36,0,0,0,2.89-2.54A7.6,7.6,0,0,0,619.94,258.13Z"/><path class="cls-2" d="M648.46,306.25V236.87h16.85v69.38Z"/><path class="cls-2" d="M729.35,306.35A62.45,62.45,0,0,1,714.51,308a43.15,43.15,0,0,1-15.34-2.64,35.45,35.45,0,0,1-12.06-7.45,34,34,0,0,1-7.88-11.51,40.74,40.74,0,0,1,0-30,33.59,33.59,0,0,1,8-11.52,35.51,35.51,0,0,1,12-7.3A42.33,42.33,0,0,1,714,235a45.6,45.6,0,0,1,15.28,2.49,31.62,31.62,0,0,1,11.47,6.72l-10.58,12a18.44,18.44,0,0,0-6.47-4.65,21.94,21.94,0,0,0-9.12-1.82,20.14,20.14,0,0,0-8.13,1.62,19.6,19.6,0,0,0-6.47,4.51,20.39,20.39,0,0,0-4.26,6.86,23.86,23.86,0,0,0-1.52,8.67,27.28,27.28,0,0,0,1.37,8.82,19,19,0,0,0,4.07,6.91,18.57,18.57,0,0,0,6.66,4.51,23.86,23.86,0,0,0,9.07,1.62,33.19,33.19,0,0,0,5.58-.45,20.22,20.22,0,0,0,4.9-1.42V278.81H712.64V265.29h28.62V302A53.57,53.57,0,0,1,729.35,306.35Z"/><path class="cls-2" d="M755,306.25V236.87h16.86v69.38Z"/><path class="cls-2" d="M830.24,306.25l-27.93-45.37H802l.39,45.37H786.14V236.87h19.11l27.83,45.27h.3L833,236.87h16.26v69.38Z"/><path class="cls-2" d="M48.12,24.45a21.65,21.65,0,0,1-1.92,9.08,23.5,23.5,0,0,1-5.12,7.3,23.69,23.69,0,0,1-7.68,4.86,25,25,0,0,1-9.34,1.79A23.51,23.51,0,0,1,6.92,40.7,22,22,0,0,1,0,24.45,22.48,22.48,0,0,1,1.8,15.62,20.91,20.91,0,0,1,6.92,8.33a27.41,27.41,0,0,1,7.68-5,23.15,23.15,0,0,1,9.46-1.92A25,25,0,0,1,33.4,3.21a23.71,23.71,0,0,1,7.68,4.87,23.34,23.34,0,0,1,5.12,7.29A21.65,21.65,0,0,1,48.12,24.45Zm-45,168.11V65.14H45V192.56Z"/><path class="cls-2" d="M158.14,48.76v143.8H114.38V48.76H63.21V11.4h146.1V48.76Z"/><path class="cls-2" d="M328.81,130.38v5.12a44,44,0,0,1-.26,4.86H236.18a22.21,22.21,0,0,0,3.2,9.72,27.38,27.38,0,0,0,6.91,7.55,33.84,33.84,0,0,0,20.34,6.78q10,0,16.89-3.71a33.42,33.42,0,0,0,11.25-9.59l29.17,18.42a59,59,0,0,1-23.66,20.09q-14.73,7-34.16,7A81.65,81.65,0,0,1,239,192.18a65.9,65.9,0,0,1-22.38-13.05A60.34,60.34,0,0,1,201.51,158q-5.5-12.54-5.5-28.66a71.74,71.74,0,0,1,5.37-28.27A63.79,63.79,0,0,1,216,79.59,65.18,65.18,0,0,1,237.71,65.9,74.42,74.42,0,0,1,264.84,61a68.57,68.57,0,0,1,25.84,4.74,56.13,56.13,0,0,1,20.21,13.68,63.48,63.48,0,0,1,13.18,21.75A83.63,83.63,0,0,1,328.81,130.38Zm-38.64-16.12a25.16,25.16,0,0,0-6.27-17.14Q277.63,90,265.09,90a31.78,31.78,0,0,0-11.25,1.92,29.08,29.08,0,0,0-9,5.25,25.91,25.91,0,0,0-6.14,7.8,22.79,22.79,0,0,0-2.56,9.34Z"/><path class="cls-2" d="M351.58,82.53A73.66,73.66,0,0,1,377.8,66.41,89.92,89.92,0,0,1,408.38,61q16.13,0,27.25,4a40.57,40.57,0,0,1,18,12.28q6.91,8.31,10.11,21t3.2,30.07v64.22H428.6V179h-.77q-4.86,7.94-14.71,12.28a52.31,52.31,0,0,1-21.37,4.35,65,65,0,0,1-15.86-2,46.17,46.17,0,0,1-15-6.65,36,36,0,0,1-11.13-12.28q-4.37-7.68-4.35-18.94,0-13.82,7.55-22.26a49.42,49.42,0,0,1,19.44-13,103.3,103.3,0,0,1,26.48-6.14,272.37,272.37,0,0,1,28.41-1.53v-2q0-9.47-6.66-13.94t-16.37-4.48A40.7,40.7,0,0,0,387,96.1a55,55,0,0,0-14.2,9.21Zm77,54.51h-5.38q-6.9,0-13.94.64a56.59,56.59,0,0,0-12.54,2.43,23.07,23.07,0,0,0-9.08,5.24,12.06,12.06,0,0,0-3.59,9.09,11,11,0,0,0,1.67,6.14,12.78,12.78,0,0,0,4.22,4.09,17.83,17.83,0,0,0,5.88,2.17,33.61,33.61,0,0,0,6.4.64q12.79,0,19.58-7t6.78-19.06Z"/><path class="cls-2" d="M573.16,102.75a46.87,46.87,0,0,0-12-8.19,33.34,33.34,0,0,0-14.59-3.33,25.54,25.54,0,0,0-10.87,2.31,8.06,8.06,0,0,0-5,7.93q0,5.37,5.5,7.68T554,114.26a97.4,97.4,0,0,1,14.46,4.35A51.34,51.34,0,0,1,581.61,126a35.61,35.61,0,0,1,9.46,11.26,33,33,0,0,1,3.59,15.87q0,12-4.87,20.34a39.87,39.87,0,0,1-12.66,13.43,54.43,54.43,0,0,1-17.53,7.42,83.83,83.83,0,0,1-19.45,2.3,96,96,0,0,1-30.57-5A64,64,0,0,1,484.63,177l23.54-24.82A46.91,46.91,0,0,0,522,162.37a38.35,38.35,0,0,0,17.4,4.09,22.83,22.83,0,0,0,10.1-2.43q5-2.43,5-8.57,0-5.88-6.14-8.7t-19.19-5.89a97.54,97.54,0,0,1-13.3-4.09,42,42,0,0,1-11.9-6.91,34.17,34.17,0,0,1-8.57-10.75,32.85,32.85,0,0,1-3.33-15.35q0-11.51,4.86-19.57A41.07,41.07,0,0,1,509.45,71a56.07,56.07,0,0,1,17-7.55A73.53,73.53,0,0,1,545,61a89.66,89.66,0,0,1,28,4.48A60.55,60.55,0,0,1,596.19,79Z"/><path class="cls-2" d="M745.36,130.38v5.12a46.7,46.7,0,0,1-.25,4.86H652.74a22.19,22.19,0,0,0,3.19,9.72,27.54,27.54,0,0,0,6.91,7.55,33.9,33.9,0,0,0,20.34,6.78q10,0,16.89-3.71a33.36,33.36,0,0,0,11.26-9.59l29.17,18.42a59,59,0,0,1-23.67,20.09q-14.72,7-34.16,7a81.64,81.64,0,0,1-27.12-4.47,66,66,0,0,1-22.39-13.05A60.47,60.47,0,0,1,618.06,158q-5.5-12.54-5.5-28.66a71.56,71.56,0,0,1,5.38-28.27,63.91,63.91,0,0,1,14.58-21.5A65.22,65.22,0,0,1,654.27,65.9,74.4,74.4,0,0,1,681.39,61a68.62,68.62,0,0,1,25.85,4.74,56.21,56.21,0,0,1,20.21,13.68,63.48,63.48,0,0,1,13.18,21.75A83.87,83.87,0,0,1,745.36,130.38Zm-38.64-16.12a25.2,25.2,0,0,0-6.26-17.14Q694.18,90,681.65,90a31.8,31.8,0,0,0-11.26,1.92,29.2,29.2,0,0,0-9,5.25,26.23,26.23,0,0,0-6.14,7.8,22.78,22.78,0,0,0-2.55,9.34Z"/><path class="cls-2" d="M854.1,99.42a32.67,32.67,0,0,0-5.5-1c-1.79-.17-3.54-.26-5.24-.26a30,30,0,0,0-14.2,3.07,29,29,0,0,0-9.21,7.42,28,28,0,0,0-5,9.47,31.63,31.63,0,0,0-1.54,9v65.5h-42V65.14h40.43V83.56h.51a41.41,41.41,0,0,1,13.81-15.87,35.79,35.79,0,0,1,20.73-6.14,47.88,47.88,0,0,1,5,.26,19.38,19.38,0,0,1,4,.77Z"/><circle class="cls-3" cx="24" cy="24" r="24"/></g></g></svg>